<?xml version="1.0" standalone="no"?>
<!DOCTYPE svg PUBLIC "-//W3C//DTD SVG 20010904//EN"
 "http://www.w3.org/TR/2001/REC-SVG-20010904/DTD/svg10.dtd">
<svg version="1.0" xmlns="http://www.w3.org/2000/svg"
 width="512.000000pt" height="512.000000pt" viewBox="0 0 512.000000 512.000000"
 preserveAspectRatio="xMidYMid meet">
<metadata>
Created by potrace 1.11, written by Peter Selinger 2001-2013
</metadata>
<g transform="translate(0.000000,512.000000) scale(0.100000,-0.100000)"
fill="#000000" stroke="none">
<path d="M2433 4924 c-117 -25 -198 -68 -318 -169 -66 -54 -92 -76 -265 -217
-63 -52 -293 -240 -511 -419 -217 -178 -494 -405 -615 -504 -120 -99 -228
-187 -239 -196 -174 -144 -236 -214 -277 -317 l-22 -57 -1 -1285 c0 -1243 1
-1287 19 -1335 26 -69 71 -126 134 -172 97 -70 58 -67 777 -67 l650 -1 45 23
c58 30 95 66 128 122 l27 45 6 525 c3 289 8 536 12 549 33 120 83 208 167 291
73 74 170 128 275 155 69 18 201 18 278 0 173 -40 328 -171 401 -338 48 -110
49 -123 51 -657 2 -499 2 -506 24 -552 29 -60 78 -110 138 -139 l48 -24 645 0
645 0 65 31 c115 56 186 145 208 264 7 37 10 467 8 1300 l-2 1245 -23 57 c-47
119 -125 214 -281 340 -130 105 -1387 1134 -1426 1167 -17 14 -46 37 -64 51
-18 14 -38 30 -44 35 -6 6 -36 30 -66 55 -30 25 -65 54 -78 66 -59 53 -182
112 -268 129 -69 13 -187 12 -251 -1z m232 -377 c17 -8 75 -53 131 -99 55 -45
217 -177 359 -293 142 -115 263 -215 269 -220 6 -6 45 -38 86 -70 41 -33 77
-62 80 -65 6 -7 749 -615 835 -684 65 -51 96 -84 126 -131 18 -29 19 -66 19
-1232 l0 -1203 -524 0 -523 0 -1 418 c0 229 -3 437 -7 462 -13 93 -16 107 -41
184 -122 381 -475 648 -874 661 -226 8 -435 -56 -606 -186 -210 -158 -329
-355 -380 -629 -4 -19 -8 -226 -9 -460 -2 -234 -3 -431 -4 -437 -1 -10 -113
-13 -526 -13 l-525 0 0 1215 0 1214 32 36 c17 20 129 116 247 213 119 97 225
184 236 193 45 37 215 176 255 209 24 19 58 47 75 61 24 21 400 329 590 484
22 18 81 66 130 106 50 41 128 106 175 144 47 38 95 79 108 90 60 54 195 70
267 32z"/>
</g>
</svg>
