<?xml version="1.0" encoding="UTF-8" standalone="no"?>
<svg width="40px" height="40px" viewBox="0 0 40 40" version="1.1" xmlns="http://www.w3.org/2000/svg" xmlns:xlink="http://www.w3.org/1999/xlink">
    <!-- Generator: Sketch 48.2 (47327) - http://www.bohemiancoding.com/sketch -->
    <title>bank</title>
    <desc>Created with Sketch.</desc>
    <defs></defs>
    <g id="05_payment" stroke="none" stroke-width="1" fill="none" fill-rule="evenodd" transform="translate(-663.000000, -344.000000)">
        <g id="payment" transform="translate(103.000000, 242.000000)" fill="#008BD2" fill-rule="nonzero">
            <g id="2-card" transform="translate(400.000000, 72.000000)">
                <g id="bank" transform="translate(160.000000, 30.000000)">
                    <path d="M19.500041,6 C17.5698038,6 16,7.56980381 16,9.500041 C16,11.4302782 17.5698038,13 19.500041,13 C21.4302782,13 23,11.4301962 23,9.500041 C23,7.5698858 21.4301962,6 19.500041,6 Z M19.500041,11.2508814 C18.5349224,11.2508814 17.7492006,10.4651596 17.7492006,9.500041 C17.7492006,8.5349224 18.5349224,7.74920059 19.500041,7.74920059 C20.4651596,7.74920059 21.2508814,8.5349224 21.2508814,9.500041 C21.2508814,10.4651596 20.4651596,11.2508814 19.500041,11.2508814 Z" id="Shape"></path>
                    <path d="M39.090882,16.3636022 C39.5933813,16.3636022 40,15.9594549 40,15.4570406 L40,11.8210781 C40,11.5006239 39.8313355,11.2032662 39.5551995,11.0398857 L21.7719577,0.479043545 C21.7639464,0.473674232 21.755935,0.469242418 21.7480089,0.464810604 C20.642698,-0.147717219 19.3962509,-0.166296746 18.2270196,0.477253774 L0.444800505,11.0398857 C0.168664533,11.203181 0,11.5006239 0,11.8210781 L0,15.4570406 C0,15.9594549 0.406618741,16.3636022 0.909118027,16.3636022 L3.63638688,16.3636022 L3.63638688,32.7279899 C1.63082155,32.7279899 0,34.3586418 0,36.3639523 L0,39.0909668 C0,39.5933811 0.406618741,40 0.909118027,40 L39.090882,40 C39.5933813,40 40,39.5934663 40,39.0909668 L40,36.3639523 C40,34.3586418 38.3691785,32.7279899 36.3636131,32.7279899 L36.3636131,16.3636022 L39.090882,16.3636022 Z M38.1817639,36.3636114 L38.1817639,38.1817631 L1.81815083,38.1817631 L1.81815083,36.3636114 C1.81815083,35.3613397 2.63403035,34.5454598 3.63630165,34.5454598 L4.54541968,34.5454598 L35.4544951,34.5454598 L36.3636131,34.5454598 C37.3658844,34.5453745 38.1817639,35.3612544 38.1817639,36.3636114 Z M5.45453771,32.7272229 L5.45453771,16.3636022 L9.09092459,16.3636022 L9.09092459,32.7272229 L5.45453771,32.7272229 Z M10.9090754,32.7272229 L10.9090754,16.3636022 L16.3636131,16.3636022 L16.3636131,32.7272229 L10.9090754,32.7272229 Z M18.1817639,32.7272229 L18.1817639,16.3636022 L21.8181508,16.3636022 L21.8181508,32.7272229 L18.1817639,32.7272229 Z M23.6363017,32.7272229 L23.6363017,16.3636022 L29.0908394,16.3636022 L29.0908394,32.7272229 L23.6363017,32.7272229 Z M30.9090754,32.7272229 L30.9090754,16.3636022 L34.5454623,16.3636022 L34.5454623,32.7272229 L30.9090754,32.7272229 Z M1.81815083,14.5454505 L1.81815083,12.3357651 L19.1290637,2.05165567 C19.6954834,1.74006506 20.2973575,1.74091734 20.8567033,2.04543409 L38.1817639,12.3357651 L38.1817639,14.5454505 L1.81815083,14.5454505 Z" id="Shape"></path>
                </g>
            </g>
        </g>
    </g>
</svg>