<?xml version="1.0" encoding="UTF-8" standalone="no"?>
<svg width="34px" height="50px" viewBox="0 0 34 50" version="1.1" xmlns="http://www.w3.org/2000/svg" xmlns:xlink="http://www.w3.org/1999/xlink">
    <!-- Generator: Sketch 48.2 (47327) - http://www.bohemiancoding.com/sketch -->
    <title>catalog</title>
    <desc>Created with Sketch.</desc>
    <defs></defs>
    <g id="07_about" stroke="none" stroke-width="1" fill="none" fill-rule="evenodd" transform="translate(-516.000000, -1624.000000)">
        <g id="features" transform="translate(103.000000, 1522.000000)" fill="#008BD2" fill-rule="nonzero">
            <g id="2-card" transform="translate(300.000000, 72.000000)">
                <g id="catalog" transform="translate(113.000000, 30.000000)">
                    <path d="M33.0557161,38.090247 L33.0557161,5.57768554 C33.0557161,5.06430607 32.6417106,4.64807128 32.1310807,4.64807128 L25.2541048,4.64807128 L25.2541048,0.929614257 C25.2541048,0.416234783 24.8400993,0 24.3294694,0 L8.72624673,0 C8.21561682,0 7.80161131,0.416234783 7.80161131,0.929614257 L7.80161131,4.64807128 L0.924635415,4.64807128 C0.414005507,4.64807128 0,5.06430607 0,5.57768554 L0,49.0703857 C0,49.5837652 0.414005507,50 0.924635415,50 L32.1310807,50 C32.6417106,50 33.0557161,49.5837652 33.0557161,49.0703857 L33.0557161,43.6716509 C33.6472516,42.8976309 34,41.9301348 34,40.880949 C34,39.8317631 33.6472516,38.864267 33.0557161,38.090247 Z M9.65088214,1.85922851 L23.4048339,1.85922851 L23.4048339,4.64807128 L9.65088214,4.64807128 L9.65088214,1.85922851 Z M31.2064453,48.1407715 L1.84927083,48.1407715 L1.84927083,6.5072998 L8.72624673,6.5072998 L24.3294694,6.5072998 L31.2064453,6.5072998 L31.2064453,36.6508555 C30.6613727,36.4191491 30.0626712,36.2909786 29.4346126,36.2909786 L29.3190332,36.2909786 L29.3190332,9.29614257 C29.3190332,8.78276309 28.9050277,8.36652831 28.3943978,8.36652831 L4.61970969,8.36652831 C4.10907978,8.36652831 3.69507428,8.78276309 3.69507428,9.29614257 L3.69507428,40.880949 C3.69507428,43.4118238 5.74314172,45.4709193 8.26046164,45.4709193 L29.4346126,45.4709193 C30.0626712,45.4709193 30.6613727,45.3426326 31.2064453,45.1110424 L31.2064453,48.1407715 Z M8.26046164,38.1502071 C9.75813985,38.1502071 10.9765782,39.3752063 10.9765782,40.880949 C10.9765782,42.3866916 9.75813985,43.6116908 8.26046164,43.6116908 C6.76278342,43.6116908 5.54434511,42.3866916 5.54434511,40.880949 L5.54434511,10.2257568 L27.4697624,10.2257568 L27.4697624,36.2909786 L8.26046164,36.2909786 C7.74983173,36.2909786 7.33582622,36.7072133 7.33582622,37.2205928 C7.33582622,37.7339723 7.74983173,38.1502071 8.26046164,38.1502071 Z M29.4346126,43.6116908 L11.9277969,43.6116908 L11.9273345,43.6116908 C12.4914777,42.8480127 12.8257334,41.9030598 12.8257334,40.880949 C12.825849,39.8589543 12.4918245,38.913769 11.9277969,38.1502071 L29.4346126,38.1502071 C30.9322909,38.1502071 32.1507292,39.3752063 32.1507292,40.880949 C32.1507292,42.3866916 30.9322909,43.6116908 29.4346126,43.6116908 Z" id="Shape"></path>
                    <path d="M8.86221341,22 L14.1376788,22 C14.6138957,22 15,21.5587379 15,21.0144901 L15,14.9855099 C15,14.4412621 14.6138957,14 14.1376788,14 L8.8623212,14 C8.38610433,14 8.00000002,14.4412621 8.00000002,14.9855099 L8.00000002,21.0144901 C7.99989223,21.5587379 8.38599654,22 8.86221341,22 Z M13.2753576,15.9710198 L13.2753576,20.0289802 L9.72464238,20.0289802 L9.72453459,15.9710198 L13.2753576,15.9710198 Z" id="Shape"></path>
                    <path d="M18.9552239,17 L25.0447761,17 C25.5722985,17 26,16.55225 26,16 C26,15.44775 25.5722985,15 25.0447761,15 L18.9552239,15 C18.4277015,15 18,15.44775 18,16 C18,16.55225 18.4277015,17 18.9552239,17 Z" id="Shape"></path>
                    <path d="M18.9552239,21 L25.0447761,21 C25.5722985,21 26,20.55225 26,20 C26,19.44775 25.5722985,19 25.0447761,19 L18.9552239,19 C18.4277015,19 18,19.44775 18,20 C18,20.55225 18.4277015,21 18.9552239,21 Z" id="Shape"></path>
                    <path d="M8.86221341,33 L14.1376788,33 C14.6138957,33 15,32.5587447 15,32.0145053 L15,25.9854947 C15,25.4412553 14.6138957,25 14.1376788,25 L8.8623212,25 C8.38610433,25 8.00000002,25.4412553 8.00000002,25.9854947 L8.00000002,32.0145053 C7.99989223,32.5587447 8.38599654,33 8.86221341,33 Z M13.2753576,26.9709895 L13.2753576,31.0290105 L9.72464238,31.0290105 L9.72453459,26.9709895 L13.2753576,26.9709895 Z" id="Shape"></path>
                    <path d="M18.9552239,28 L25.0447761,28 C25.5722985,28 26,27.55225 26,27 C26,26.44775 25.5722985,26 25.0447761,26 L18.9552239,26 C18.4277015,26 18,26.44775 18,27 C18,27.55225 18.4277015,28 18.9552239,28 Z" id="Shape"></path>
                    <path d="M18.9552239,31 L25.0447761,31 C25.5722985,31 26,30.55225 26,30 C26,29.44775 25.5722985,29 25.0447761,29 L18.9552239,29 C18.4277015,29 18,29.44775 18,30 C18,30.55225 18.4277015,31 18.9552239,31 Z" id="Shape"></path>
                </g>
            </g>
        </g>
    </g>
</svg>