<?xml version="1.0" encoding="UTF-8" standalone="no"?>
<svg width="40px" height="40px" viewBox="0 0 40 40" version="1.1" xmlns="http://www.w3.org/2000/svg" xmlns:xlink="http://www.w3.org/1999/xlink">
    <!-- Generator: Sketch 48.2 (47327) - http://www.bohemiancoding.com/sketch -->
    <title>credit-card</title>
    <desc>Created with Sketch.</desc>
    <defs></defs>
    <g id="05_payment" stroke="none" stroke-width="1" fill="none" fill-rule="evenodd" transform="translate(-263.000000, -344.000000)">
        <g id="payment" transform="translate(103.000000, 242.000000)" fill="#008BD2" fill-rule="nonzero">
            <g id="1-card" transform="translate(0.000000, 72.000000)">
                <g id="credit-card" transform="translate(160.000000, 30.000000)">
                    <path d="M38.9382126,13.7267885 L26.2721158,1.060282 C25.5883656,0.376579417 24.6765685,0 23.704537,0 C22.7325837,0 21.8207085,0.37642316 21.1369583,1.06012575 L1.06023463,21.1378246 C0.376562592,21.8216053 0,22.733365 0,23.7054399 C0,24.6775148 0.376562592,25.5894308 1.06023463,26.2730552 L2.62211002,27.8350004 C2.62226627,27.8350785 2.62234439,27.8352348 2.62250064,27.835391 C2.62265689,27.8355473 2.62281314,27.8357036 2.62296939,27.8358598 L13.119847,38.3332064 L11.6664091,38.3332064 C11.2062527,38.3332064 10.8331276,38.70627 10.8331276,39.1665251 C10.8331276,39.626702 11.2062527,39.9998437 11.6664091,39.9998437 L16.2905509,39.9998437 C16.2916446,39.9998437 16.2926602,39.9999219 16.293754,39.9999219 C16.2948477,39.9999219 16.2958634,39.9998437 16.2969571,39.9998437 L28.3323507,40 C28.792507,40 29.1656321,39.6268582 29.1656321,39.1666813 C29.1656321,38.7064263 28.792507,38.3333626 28.3323507,38.3333626 L19.4679735,38.3332064 L38.9382908,18.8620192 C40.3539161,17.4461743 40.3539161,15.1424771 38.9382126,13.7267885 Z M37.7597748,17.6835288 L17.6828949,37.7613057 C17.3146917,38.1294472 16.8225041,38.3324251 16.2968009,38.3332064 L16.2904727,38.3332064 C15.7649257,38.332347 15.2728944,38.1294472 14.9048474,37.7613057 L4.39023545,27.2461458 L23.6710995,7.96426402 C23.9964902,7.63885878 23.9964902,7.11117882 23.6710995,6.78577358 C23.3456307,6.46036834 22.8181306,6.46036834 22.4925836,6.78585171 L3.21171953,26.0677335 L2.2385943,25.0945648 C1.86976608,24.7257201 1.66664103,24.2324167 1.66664103,23.705518 C1.66664103,23.1786194 1.86976608,22.6852378 2.23867242,22.316315 L22.3153961,2.23869432 C22.6843024,1.86984962 23.1776619,1.6667155 23.704537,1.6667155 C24.2314122,1.6667155 24.7247717,1.86984962 25.093678,2.23877244 L29.601726,6.74694371 L10.3206275,26.0290599 C9.99523682,26.354387 9.99523682,26.882067 10.3206275,27.2076285 C10.4833619,27.370292 10.6966432,27.4516238 10.9098464,27.4516238 C11.1230496,27.4516238 11.3363309,27.3702139 11.4990653,27.2075503 L30.7801638,7.92551228 L37.7597748,14.9052008 C38.5256344,15.6711727 38.5255563,16.9175568 37.7597748,17.6835288 Z" id="Shape"></path>
                    <path d="M19.7626118,23.2373715 C19.4460814,22.9208382 18.9329451,22.9209142 18.6161868,23.2373715 L12.2373977,29.6161451 C11.9208674,29.9326785 11.9208674,30.4458957 12.2373977,30.762581 C12.3957009,30.9208857 12.6031746,31 12.8105722,31 C13.0179699,31 13.2254435,30.9208097 13.3837467,30.762581 L19.7625358,24.3838074 C20.0791421,24.067122 20.0791421,23.5539048 19.7626118,23.2373715 Z" id="Shape"></path>
                    <path d="M16.6937666,30.2241452 L14.2240994,32.6937238 C13.9253002,32.9925124 13.9253002,33.4770304 14.2240994,33.7758907 C14.3735349,33.9252491 14.5693865,34 14.7651664,34 C14.9610897,34 15.1567979,33.9252491 15.3062334,33.7758907 L17.7759006,31.306312 C18.0746998,31.0075235 18.0746998,30.5230055 17.7759006,30.2241452 C17.4771013,29.9252849 16.9927811,29.9252849 16.6937666,30.2241452 Z" id="Shape"></path>
                    <path d="M20.5917041,28.2415764 L20.241692,28.5914976 C19.9194489,28.9136509 19.9194489,29.4359802 20.2416147,29.7582883 C20.4026589,29.9194036 20.6139038,30 20.824994,30 C21.0360841,30 21.2472516,29.9194036 21.4082959,29.7582883 L21.758308,29.4083671 C22.0805511,29.0862137 22.0805511,28.5638844 21.7583853,28.2416537 C21.4363742,27.9195003 20.91387,27.919423 20.5917041,28.2415764 Z" id="Shape"></path>
                    <path d="M32.2473289,12.2583072 C32.0819624,12.0929377 31.8576426,12 31.6237317,12 C31.3898207,12 31.1655836,12.0929377 31.0001344,12.2583072 L27.2583026,16.000124 C27.092936,16.1655763 27,16.3898174 27,16.6237326 C27,16.8576478 27.092936,17.0819716 27.2583026,17.2473412 L29.7528571,19.7416928 C29.9250864,19.9139251 30.1508117,20 30.3764544,20 C30.6022624,20 30.8278224,19.9138425 31.0000517,19.7416928 L34.7417181,16.0000413 C35.086094,15.6556593 35.086094,15.0972063 34.7417181,14.7528242 L32.2473289,12.2583072 Z M30.3763717,17.8709497 L29.1290944,16.6237326 L31.623649,14.1292156 L32.8708436,15.3765155 L30.3763717,17.8709497 Z" id="Shape"></path>
                    <path d="M24.8250343,6 C25.0362771,6 25.2474426,5.91940988 25.4084853,5.75822965 L25.758494,5.40810349 C26.0805793,5.0858977 26.080502,4.56353143 25.7582619,4.24148033 C25.4360992,3.91942923 24.9136001,3.91950657 24.5915147,4.24171236 L24.241506,4.59183852 C23.9194207,4.91404431 23.919498,5.43641057 24.2417381,5.75846167 C24.4028581,5.91956457 24.6138689,6 24.8250343,6 Z" id="Shape"></path>
                    <path d="M8.59163073,28.2416707 L8.24162203,28.5916659 C7.91945932,28.9137388 7.91945932,29.4361404 8.24162203,29.7584453 C8.40274206,29.9194818 8.61390753,30 8.82499565,30 C9.03608377,30 9.24724924,29.9194818 9.40836927,29.7584453 L9.75837797,29.4084502 C10.0805407,29.0862226 10.0805407,28.5638209 9.75837797,28.2416707 C9.43613792,27.9194431 8.91387079,27.9194431 8.59163073,28.2416707 Z" id="Shape"></path>
                </g>
            </g>
        </g>
    </g>
</svg>