<?xml version="1.0" encoding="UTF-8" standalone="no"?>
<svg width="58px" height="50px" viewBox="0 0 58 50" version="1.1" xmlns="http://www.w3.org/2000/svg" xmlns:xlink="http://www.w3.org/1999/xlink">
    <!-- Generator: Sketch 48.2 (47327) - http://www.bohemiancoding.com/sketch -->
    <title>delivery-truck</title>
    <desc>Created with Sketch.</desc>
    <defs></defs>
    <g id="07_about" stroke="none" stroke-width="1" fill="none" fill-rule="evenodd" transform="translate(-1104.000000, -1624.000000)">
        <g id="features" transform="translate(103.000000, 1522.000000)" fill="#008BD2" fill-rule="nonzero">
            <g id="4-card" transform="translate(900.000000, 72.000000)">
                <g id="delivery-truck" transform="translate(101.000000, 30.000000)">
                    <path d="M21,42 C19.8999824,42 19,42.8999824 19,44 C19,45.1000176 19.8999824,46 21,46 C22.1000176,46 23,45.1000176 23,44 C23,42.8999824 22.0999004,42 21,42 Z" id="Shape"></path>
                    <path d="M46,42 C44.8999824,42 44,42.8999824 44,44 C44,45.1000176 44.8999824,46 46,46 C47.1000176,46 48,45.1000176 48,44 C48,42.8999824 47.1000176,42 46,42 Z" id="Shape"></path>
                    <path d="M44.0000293,36 L41.9999707,36 C41.3999648,36 41,36.3999766 41,37 C41,37.6000234 41.3999648,38 41.9999707,38 L44.0000293,38 C44.6000351,38 45,37.6000234 45,37 C45.0001172,36.4000938 44.6000351,36 44.0000293,36 Z" id="Shape"></path>
                    <path d="M28.9999194,26 L14.9999634,26 C14.3999619,26 14,26.3999766 14,27 C14,27.6000234 14.3999619,28 14.9999634,28 L29.0000366,28 C29.6000381,28 30,27.6000234 30,27 C30,26.3999766 29.5999209,26 28.9999194,26 Z" id="Shape"></path>
                    <path d="M10.5,16 C13.525,16 16,13.525 16,10.5 C16,7.475 13.525,5 10.5,5 C7.475,5 5,7.475 5,10.5 C5,13.525 7.475,16 10.5,16 Z M10.5,6.83326172 C12.5166309,6.83326172 14.1666309,8.48326172 14.1666309,10.4998926 C14.1666309,12.5165234 12.5166309,14.1665234 10.5,14.1665234 C8.48336914,14.1665234 6.83336914,12.5165234 6.83336914,10.4998926 C6.83336914,8.48326172 8.48336914,6.83326172 10.5,6.83326172 Z" id="Shape"></path>
                    <path d="M56.7453505,33.65387 L53.019175,32.1307763 C53.0031159,32.106212 52.9860389,32.0826619 52.9677179,32.060126 L50.5689105,22.5000282 C50.2793934,21.1538418 49.121325,20.2884605 47.7702075,20.2884605 L38.6987096,20.2884605 L38.6987096,17.4038559 C38.6987096,16.34613 37.8301583,15.4807486 36.7685579,15.4807486 L19.9159488,15.4807486 C20.7532865,13.8391157 21.327797,12.2855984 21.327797,10.0961159 C21.327797,4.51925135 16.5990555,0 10.7121325,0 C4.82532261,0 0.0964680006,4.51925135 0,10.0961159 C0,12.7883759 0.868551284,14.5191387 2.02661966,16.6345905 C2.21966876,16.9230509 2.41260476,17.3076273 2.60565385,17.6923164 C5.24761043,22.7813898 9.09411645,28.9902757 9.74711321,30.110877 L9.74711321,31.7307627 L9.74711321,43.2691809 C9.74711321,44.3269068 10.6156645,45.1922882 11.6772649,45.1922882 L15.6200127,45.1922882 C16.083127,47.9117041 18.4718692,50 21.327797,50 C24.1837248,50 26.572467,47.9117041 27.0355813,45.1922882 L40.7115319,45.1922882 C41.1746462,47.9117041 43.5633884,50 46.4193162,50 C49.275244,50 51.6639862,47.9117041 52.1271005,45.1922882 L56.0698483,45.1922882 C57.1314487,45.1922882 58,44.3269068 58,43.2691809 L58,35.4807486 C57.9998869,34.6153673 57.5174338,33.9423304 56.7453505,33.65387 Z M36.768671,21.1538418 L36.768671,22.1153391 C36.768671,26.9230509 32.9084808,30.7691528 28.0831582,30.7691528 L11.6771518,30.7691528 L11.6771518,30.0961159 C12.2305139,29.2000856 14.3212571,25.7843082 16.3850843,22.1153391 L30.9783291,22.1153391 C31.5573633,22.1153391 31.9433484,21.7307627 31.9433484,21.1538418 C31.9433484,20.5769209 31.5573633,20.1923445 30.9783291,20.1923445 L17.4500774,20.1923445 C17.8943052,19.3759789 18.3240571,18.5664868 18.7221431,17.788545 L18.8795681,17.396419 C18.8961927,17.3666715 18.9127042,17.3370367 18.9293288,17.30774 L36.768671,17.30774 L36.768671,21.1538418 Z M3.86019023,15.7693218 C2.79858985,13.7500986 2.02661966,12.3077963 2.02661966,10.0962286 C2.02661966,5.57697725 5.88680989,1.92321994 10.7121325,1.92321994 C15.5374551,1.92321994 19.3976453,5.57708993 19.3976453,10.0962286 C19.3976453,12.3077963 18.6255621,13.65387 17.5640748,15.7693218 C17.3710257,16.0577822 17.1780897,16.4423586 16.9850406,16.8270477 C15.1861894,20.3262082 12.7040327,24.5056171 11.2237635,27.0151104 C11.0354643,27.327797 10.8619802,27.615356 10.7057993,27.8739563 C9.35208071,25.5625542 6.46279058,20.8594093 4.43933751,16.8271604 C4.24628842,16.4423586 4.05323932,16.1538982 3.86019023,15.7693218 Z M21.327797,48.0768927 C19.2047093,48.0768927 17.4676068,46.34613 17.4676068,44.2307909 C17.4676068,42.1154518 19.2047093,40.3846891 21.327797,40.3846891 C23.4508847,40.3846891 25.1879872,42.1154518 25.1879872,44.2307909 C25.1879872,46.34613 23.4508847,48.0768927 21.327797,48.0768927 Z M46.4192031,48.0768927 C44.2961155,48.0768927 42.5590129,46.34613 42.5590129,44.2307909 C42.5590129,42.1154518 44.2961155,40.3846891 46.4192031,40.3846891 C48.5422908,40.3846891 50.2793934,42.1154518 50.2793934,44.2307909 C50.2795064,46.34613 48.5424039,48.0768927 46.4192031,48.0768927 Z M56.0699614,43.2692936 L52.1271005,43.2691809 C51.8012807,41.3558768 50.5220901,39.7561608 48.7972015,38.975402 C48.7589762,38.9579366 48.7209771,38.9400205 48.6821864,38.9233439 C48.6579845,38.9129773 48.6333303,38.9036249 48.6089023,38.8935964 C48.5463621,38.8677927 48.4834826,38.8425524 48.4198115,38.8190023 C48.4026214,38.8126923 48.3852051,38.8068329 48.367902,38.8006355 C48.2972191,38.7751699 48.2258577,38.750831 48.1538177,38.7280697 C48.1382109,38.7231118 48.1226041,38.7184919 48.1068842,38.7137593 C48.0336002,38.691336 47.9596376,38.6701522 47.8849965,38.6506586 C47.868485,38.6463768 47.8519735,38.6420949 47.8353489,38.6379258 C47.7620648,38.6194463 47.6882154,38.602319 47.6136873,38.5866565 C47.594914,38.5827127 47.5762537,38.5786562 47.5574803,38.5749377 C47.4855534,38.5605147 47.413061,38.5476692 47.3401163,38.5359505 C47.3185156,38.5324574 47.297028,38.528739 47.2753142,38.5254713 C47.2050837,38.5149921 47.1341746,38.5063157 47.0630394,38.4984281 C47.0389507,38.4957238 47.014975,38.4925688 46.9907732,38.4900898 C46.9196379,38.4831037 46.8479372,38.4780331 46.7760103,38.4736385 C46.7522609,38.4721737 46.7288507,38.4699201 46.7049882,38.4687933 C46.6103296,38.4641734 46.5149926,38.4614691 46.4189769,38.4614691 C46.3229613,38.4614691 46.2276242,38.4641734 46.1329657,38.4687933 C46.1092163,38.4699201 46.085693,38.4721737 46.0619436,38.4736385 C45.9900167,38.4780331 45.9183159,38.4831037 45.8471807,38.4900898 C45.8229789,38.4924561 45.7990032,38.4957238 45.7749145,38.4984281 C45.7037792,38.5063157 45.6328702,38.5151047 45.5626397,38.5254713 C45.5409259,38.528739 45.5194383,38.5324574 45.4977245,38.5359505 C45.4247798,38.5476692 45.3524005,38.5605147 45.2804736,38.5748251 C45.2615871,38.5786562 45.2429268,38.5826 45.2241535,38.5865438 C45.1497385,38.6022063 45.075889,38.6193336 45.002605,38.6378131 C44.9860935,38.6419823 44.9694689,38.6461514 44.9529574,38.6505459 C44.8783162,38.6701522 44.8043537,38.6912234 44.7310697,38.7137593 C44.7154629,38.7184919 44.6998561,38.7231118 44.6842493,38.7280697 C44.6120962,38.750831 44.5408479,38.7751699 44.4700519,38.8006355 C44.4528618,38.8068329 44.4355587,38.8126923 44.4183686,38.8190023 C44.3545843,38.8426651 44.2915918,38.8679054 44.2289385,38.8938218 C44.2046235,38.9038503 44.1800824,38.9132027 44.1559937,38.9234566 C44.1172029,38.9401332 44.0790907,38.958162 44.0407523,38.9756273 C42.31609,39.7564988 41.0368994,41.3561022 40.7110796,43.2692936 L27.0355813,43.2692936 C26.7097615,41.3561022 25.4307971,39.7566115 23.7062478,38.97574 C23.6677963,38.958162 23.6296841,38.9401332 23.5907802,38.9234566 C23.5666915,38.9132027 23.5421504,38.9038503 23.5178355,38.8938218 C23.4551822,38.8680181 23.3921896,38.8427778 23.3284054,38.8190023 C23.3113284,38.8126923 23.2939121,38.8068329 23.276722,38.8006355 C23.2059261,38.7751699 23.1345646,38.750831 23.0625246,38.7280697 C23.0470309,38.7232244 23.0313111,38.7186046 23.0157043,38.7137593 C22.9424203,38.691336 22.8684577,38.6701522 22.7938166,38.6505459 C22.777305,38.6462641 22.7607935,38.6419823 22.7441689,38.6378131 C22.6708849,38.6193336 22.5970354,38.6022063 22.5225074,38.5865438 C22.503734,38.5826 22.4850737,38.5785435 22.4663004,38.5748251 C22.3943734,38.560402 22.3218811,38.5475565 22.2489363,38.5358378 C22.2273357,38.5323448 22.2058481,38.5286263 22.1841343,38.5253586 C22.1139038,38.5148794 22.0429947,38.506203 21.9718594,38.4983154 C21.9477707,38.4956111 21.9237951,38.4924561 21.8995933,38.4899771 C21.828458,38.482991 21.7567573,38.4779204 21.6848304,38.4735259 C21.6610809,38.472061 21.6376708,38.4698074 21.6138082,38.4686806 C21.5191497,38.4640608 21.4238126,38.4613564 21.327797,38.4613564 C21.2317814,38.4613564 21.1364443,38.4640608 21.0417858,38.4686806 C21.0180363,38.4698074 20.9945131,38.472061 20.9707636,38.4735259 C20.8988367,38.4779204 20.827136,38.482991 20.7560007,38.4899771 C20.7317989,38.4923434 20.7078233,38.4956111 20.6837346,38.4983154 C20.6125993,38.506203 20.5416902,38.5149921 20.4714597,38.5253586 C20.4497459,38.5286263 20.4282583,38.5323448 20.4066576,38.5358378 C20.3337129,38.5475565 20.2612205,38.560402 20.1892936,38.5748251 C20.1705203,38.5785435 20.1517469,38.5826 20.1330866,38.5865438 C20.0585586,38.6022063 19.9847091,38.6193336 19.9114251,38.6378131 C19.8949136,38.6419823 19.8782889,38.6461514 19.8617774,38.6505459 C19.7871363,38.6701522 19.7132868,38.6912234 19.6398897,38.7136467 C19.6242829,38.7183792 19.6085631,38.7229991 19.5929563,38.727957 C19.5209163,38.7507183 19.4496679,38.7750572 19.378872,38.8005228 C19.3615688,38.8067202 19.3441525,38.8125796 19.3269624,38.8188897 C19.2632913,38.8425524 19.2004118,38.86768 19.1378716,38.8934837 C19.1134436,38.9035122 19.0887894,38.9128647 19.0645876,38.9232312 C19.0259099,38.9399078 18.9879108,38.9578239 18.9495724,38.9752893 C17.2246838,39.7560481 15.9454933,41.3557641 15.6196734,43.2690683 L11.6769256,43.2690683 L11.6769256,32.6921473 L28.0831582,32.6921473 C33.9699681,32.6921473 38.6988227,27.9806641 38.6988227,22.211455 L38.6988227,22.1153391 L47.7703206,22.1153391 C48.2528868,22.1153391 48.6388719,22.4999155 48.7353399,22.8846046 L50.9338603,31.7307627 L43.8135493,31.7307627 C43.1380471,31.7307627 42.5590129,31.1538418 42.5590129,30.480805 L42.5590129,25.9615536 C42.5590129,25.3846327 42.1730278,25.0000563 41.5939936,25.0000563 C41.0149594,25.0000563 40.6289743,25.3846327 40.6289743,25.9615536 L40.6289743,30.480805 C40.6289743,32.2115677 42.0765598,33.65387 43.8136624,33.65387 L51.823673,33.65387 L56.0699614,35.2885168 L56.0699614,43.2692936 Z" id="Shape"></path>
                </g>
            </g>
        </g>
    </g>
</svg>