<?xml version="1.0" encoding="UTF-8" standalone="no"?>
<svg width="29px" height="50px" viewBox="0 0 29 50" version="1.1" xmlns="http://www.w3.org/2000/svg" xmlns:xlink="http://www.w3.org/1999/xlink">
    <!-- Generator: Sketch 48.2 (47327) - http://www.bohemiancoding.com/sketch -->
    <title>door</title>
    <desc>Created with Sketch.</desc>
    <defs></defs>
    <g id="07_about" stroke="none" stroke-width="1" fill="none" fill-rule="evenodd" transform="translate(-819.000000, -1624.000000)">
        <g id="features" transform="translate(103.000000, 1522.000000)" fill="#008BD2" fill-rule="nonzero">
            <g id="3-card" transform="translate(600.000000, 72.000000)">
                <g id="door" transform="translate(116.000000, 30.000000)">
                    <path d="M27.4445511,0 L0.986821471,0 C0.441887799,0 0,0.445996094 0,0.995996094 L0,49.0040039 C0,49.5540039 0.441887799,50 0.986821471,50 L27.4446478,50 C27.9895815,50 28.4314693,49.5540039 28.4313725,49.0040039 L28.4313725,0.995996094 C28.4313725,0.445996094 27.9894847,0 27.4445511,0 Z M26.4577296,48.0080078 L1.97364294,48.0080078 L1.97364294,1.99199219 L26.4577296,1.99199219 L26.4577296,48.0080078 Z" id="Shape"></path>
                    <path d="M11.7191249,4.90196078 L4.9475417,4.90196078 C4.38098808,4.90196078 3.92156863,5.35528173 3.92156863,5.9143147 L3.92156863,25.4582343 C3.92156863,26.0172673 4.38098808,26.4705882 4.9475417,26.4705882 L11.7191249,26.4705882 C12.2856786,26.4705882 12.745098,26.0172673 12.745098,25.4582343 L12.745098,5.91441396 C12.7451986,5.35538099 12.2856786,4.90196078 11.7191249,4.90196078 Z M10.6931519,24.4458804 L5.97361537,24.4458804 L5.97361537,6.92676787 L10.6931519,6.92676787 L10.6931519,24.4458804 Z" id="Shape"></path>
                    <path d="M23.4838308,4.90196078 L16.7122476,4.90196078 C16.145694,4.90196078 15.6862745,5.35528173 15.6862745,5.9143147 L15.6862745,25.4582343 C15.6862745,26.0172673 16.145694,26.4705882 16.7122476,26.4705882 L23.4838308,26.4705882 C24.0503844,26.4705882 24.5098039,26.0172673 24.5098039,25.4582343 L24.5098039,5.91441396 C24.5099045,5.35538099 24.0503844,4.90196078 23.4838308,4.90196078 Z M22.4578578,24.4458804 L17.7383213,24.4458804 L17.7383213,6.92676787 L22.4578578,6.92676787 L22.4578578,24.4458804 Z" id="Shape"></path>
                    <path d="M6.37254902,27.4509804 C5.02106064,27.4509804 3.92156863,28.5504724 3.92156863,29.9019608 C3.92156863,31.2534492 5.02106064,32.3529412 6.37254902,32.3529412 C7.7240374,32.3529412 8.82352941,31.2534492 8.82352941,29.9019608 C8.82352941,28.5504724 7.7240374,27.4509804 6.37254902,27.4509804 Z M6.37254902,30.43055 C6.08116055,30.43055 5.84386554,30.1933493 5.84386554,29.9018665 C5.84386554,29.6103838 6.08106631,29.3731831 6.37254902,29.3731831 C6.66403173,29.3731831 6.9012325,29.6103838 6.9012325,29.9018665 C6.9012325,30.1933493 6.66393749,30.43055 6.37254902,30.43055 Z" id="Shape"></path>
                    <path d="M23.5294118,35.2941176 C22.9880284,35.2941176 22.5490196,35.7331179 22.5490196,36.2744906 L22.5490196,44.1176663 C22.5490196,44.659039 22.9880284,45.0980392 23.5294118,45.0980392 C24.0707951,45.0980392 24.5098039,44.659039 24.5098039,44.1176663 L24.5098039,36.2744906 C24.5099,35.7331179 24.0707951,35.2941176 23.5294118,35.2941176 Z" id="Shape"></path>
                    <path d="M23.5294118,32.3529412 C22.9880284,32.3529412 22.5490196,32.7041413 22.5490196,33.1372395 L22.5490196,33.5294271 C22.5490196,33.9625253 22.9880284,34.3137255 23.5294118,34.3137255 C24.0707951,34.3137255 24.5098039,33.9625253 24.5098039,33.5294271 L24.5098039,33.1372395 C24.5099,32.7041413 24.0707951,32.3529412 23.5294118,32.3529412 Z" id="Shape"></path>
                </g>
            </g>
        </g>
    </g>
</svg>