<?xml version="1.0" encoding="UTF-8" standalone="no"?>
<svg width="45px" height="50px" viewBox="0 0 45 50" version="1.1" xmlns="http://www.w3.org/2000/svg" xmlns:xlink="http://www.w3.org/1999/xlink">
    <!-- Generator: Sketch 48.2 (47327) - http://www.bohemiancoding.com/sketch -->
    <title>door-knob</title>
    <desc>Created with Sketch.</desc>
    <defs></defs>
    <g id="07_about" stroke="none" stroke-width="1" fill="none" fill-rule="evenodd" transform="translate(-811.000000, -1824.000000)">
        <g id="features" transform="translate(103.000000, 1522.000000)" fill="#008BD2" fill-rule="nonzero">
            <g id="7-card" transform="translate(600.000000, 272.000000)">
                <g id="door-knob" transform="translate(108.000000, 30.000000)">
                    <path d="M42.0652174,24.0234882 L29.3478261,24.0234882 L29.3478261,2.92968178 C29.3478261,1.31425525 28.0313804,0 26.4130435,0 L2.93478261,0 C1.31654348,0 0,1.31425525 0,2.92968178 L0,47.0702206 C0,48.6857448 1.31644565,50 2.93458696,50 L26.4130435,50 C28.0313804,50 29.3478261,48.6857448 29.3478261,47.0702206 L29.3478261,33.7890942 L42.0650217,33.7890942 C43.6834565,33.7890942 45,32.4748389 45,30.8593147 L45,26.9530724 C45,25.3376458 43.6834565,24.0234882 42.0652174,24.0234882 Z M27.3913043,47.0702206 C27.3913043,47.6087937 26.9524565,48.0468788 26.4130435,48.0468788 L2.93478261,48.0468788 C2.39527174,48.0468788 1.95652174,47.6086961 1.95652174,47.0702206 L1.95652174,2.92968178 C1.95652174,2.39120627 2.39517391,1.95312119 2.93458696,1.95312119 L26.4130435,1.95312119 C26.9524565,1.95312119 27.3913043,2.39120627 27.3913043,2.92968178 L27.3913043,24.0234882 L21.9950217,24.0234882 C20.36925,21.6003484 17.614663,20.1170506 14.673913,20.1170506 C9.81909783,20.1170506 5.86956522,24.0598163 5.86956522,28.9061935 C5.86956522,33.7525708 9.81909783,37.6953365 14.673913,37.6953365 C17.614663,37.6953365 20.3690543,36.2121363 21.9950217,33.7891918 L27.3913043,33.7891918 L27.3913043,47.0702206 Z M10.7761304,31.1585329 C10.9266848,32.6341159 12.1785652,33.7892895 13.6956522,33.7892895 L13.6958478,33.7892895 L19.4639674,33.7892895 C18.1986848,35.0216113 16.4813478,35.7421177 14.6741087,35.7421177 C10.8982174,35.7421177 7.82628261,32.6755221 7.82628261,28.9060959 C7.82628261,25.1366697 10.8982174,22.0700741 14.6741087,22.0700741 C16.4816413,22.0700741 18.1988804,22.7906781 19.464163,24.0233906 L13.6958478,24.0233906 L13.6956522,24.0233906 L13.6956522,24.0234882 C12.1785652,24.0234882 10.9266848,25.1785641 10.7761304,26.6540495 C10.7661522,26.7523892 10.7610652,26.8521936 10.7610652,26.95317 L10.7610652,30.8594124 C10.7609674,30.9603887 10.76625,31.0601932 10.7761304,31.1585329 Z M43.0434783,30.8593147 C43.0434783,31.3978879 42.6046304,31.835973 42.0650217,31.835973 L28.3695652,31.835973 L21.4527717,31.835973 L13.6956522,31.835973 C13.1562391,31.835973 12.7173913,31.3977902 12.7173913,30.8593147 L12.7173913,26.9530724 C12.7173913,26.4145968 13.1562391,25.9766094 13.6956522,25.9766094 L21.4527717,25.9766094 L28.3695652,25.9766094 L42.0650217,25.9766094 C42.6046304,25.9766094 43.0434783,26.4146945 43.0434783,26.9530724 L43.0434783,30.8593147 Z" id="Shape"></path>
                    <path d="M23,4 L7,4 C5.3457,4 4,5.34588654 4,7.00007 L4,11.00013 C4,12.6542135 5.3456,14 7,14 L23,14 C24.6543,14 26,12.6542135 26,11.00013 L26,7.00007 C26,5.34588654 24.6542,4 23,4 Z M24,11.00013 C24,11.5515245 23.5514,12.00002 23,12.00002 L7,12.00002 C6.4486,12.00002 6,11.5515245 6,11.00013 C6,11.00013 6,7.00007 6,7.00007 C6,6.44857551 6.4486,5.99998 7,5.99998 L23,5.99998 C23.5514,5.99998 24,6.44857551 24,7.00007 L24,11.00013 Z" id="Shape"></path>
                    <path d="M11.9655648,44 L5.0344352,44 C4.46322008,44 4,44.4477 4,45 C4,45.5523 4.46322008,46 5.0344352,46 L11.9655648,46 C12.5368834,46 13,45.5523 13,45 C13,44.4476 12.5369868,44 11.9655648,44 Z" id="Shape"></path>
                    <path d="M14.0232944,44 L13.9767056,44 C13.4372711,44 13,44.4477 13,45 C13,45.5523 13.4372711,46 13.9767056,46 L14.0232944,46 C14.5625336,46 15,45.5523 15,45 C15,44.4476 14.5625336,44 14.0232944,44 Z" id="Shape"></path>
                    <path d="M21.015309,8 L11.9847895,8 C11.4408902,8 11,8.4477 11,9 C11,9.5523 11.4408902,10 11.9847895,10 L21.0152105,10 C21.5589128,10 22,9.5523 22,9 C22,8.4477 21.5590113,8 21.015309,8 Z" id="Shape"></path>
                    <path d="M9.02319902,8 L8.97680098,8 C8.43750916,8 8,8.4477 8,9 C8,9.5523 8.43741148,10 8.97680098,10 L9.02319902,10 C9.5626862,10 10,9.5523 10,9 C10,8.4477 9.56258852,8 9.02319902,8 Z" id="Shape"></path>
                </g>
            </g>
        </g>
    </g>
</svg>