<?xml version="1.0" encoding="UTF-8" standalone="no"?>
<svg width="68px" height="50px" viewBox="0 0 68 50" version="1.1" xmlns="http://www.w3.org/2000/svg" xmlns:xlink="http://www.w3.org/1999/xlink">
    <!-- Generator: Sketch 48.2 (47327) - http://www.bohemiancoding.com/sketch -->
    <title>handshake</title>
    <desc>Created with Sketch.</desc>
    <defs></defs>
    <g id="07_about" stroke="none" stroke-width="1" fill="none" fill-rule="evenodd" transform="translate(-1099.000000, -1824.000000)">
        <g id="features" transform="translate(103.000000, 1522.000000)" fill="#008BD2" fill-rule="nonzero">
            <g id="8-card" transform="translate(900.000000, 272.000000)">
                <g id="handshake" transform="translate(96.000000, 30.000000)">
                    <path d="M67.6816495,13.8121572 L54.4934134,0.730796743 C54.0693445,0.310036978 53.3817765,0.310036978 52.957442,0.730796743 L46.363324,7.27141113 C46.1597231,7.47336001 46.0453719,7.74736762 46.0453719,8.03309959 C46.0453719,8.31883157 46.1597231,8.59283918 46.363324,8.79478806 L47.021142,9.44726868 L45.5094753,10.9464065 C44.5281271,11.919397 43.005437,12.1849736 41.7206133,11.6065277 C40.516008,11.0641771 39.1768641,10.7776547 37.8476812,10.7776547 C36.2694756,10.7776547 34.7271294,11.1706185 33.3567747,11.914918 C32.7852844,11.7752795 32.1987864,11.7037477 31.6064447,11.7037477 C30.749807,11.7037477 29.9084427,11.8503681 29.1057267,12.1397887 C27.8239576,12.6016496 26.450017,12.3153907 25.519403,11.392591 L22.8051232,8.70020274 L23.1283877,8.37956114 C23.3319886,8.17761226 23.4463398,7.90360465 23.4463398,7.61787267 C23.4463398,7.3321407 23.3319886,7.05813309 23.1283877,6.85618421 L16.5342697,0.315569824 C16.1099352,-0.105189941 15.4225,-0.105189941 14.9982983,0.315569824 L0.318051647,14.8767032 C-0.106017216,15.2974629 -0.106017216,15.9794521 0.318051647,16.4000801 L6.91203692,22.9406945 C7.1157706,23.1427751 7.39188684,23.2561984 7.68008898,23.2561984 C7.96829112,23.2561984 8.24427456,23.1427751 8.44814105,22.9406945 L8.84139751,22.5506288 L10.7557503,24.4494489 C11.2387878,24.928567 11.5589976,25.526773 11.6815831,26.1792537 C12.3172216,29.562589 13.9508097,32.6384562 16.4057076,35.0747527 L16.7662923,35.4324117 C16.0738103,36.1557654 15.6929053,37.0981935 15.6929053,38.0993752 C15.6929053,39.1349395 16.0995758,40.1085887 16.8377452,40.8409004 C17.5998207,41.5967925 18.6005595,41.9746069 19.6016967,41.9746069 C19.6669074,41.9746069 19.7318525,41.9728943 19.7970632,41.969601 C19.744204,43.0259793 20.1235152,44.0997467 20.9349968,44.9049075 C21.673299,45.6372192 22.6549128,46.0404583 23.6989483,46.0404583 C23.7280341,46.0404583 23.7569872,46.0390092 23.786073,46.0383505 C23.7637606,47.0591606 24.1434702,48.0870844 24.9270613,48.8644492 C25.6653634,49.5968926 26.6469773,50 27.6911456,50 C28.7351811,50 29.7166621,49.5966292 30.4550971,48.8644492 C30.5172531,48.8027975 30.5758232,48.739038 30.6330652,48.6744882 C31.0175561,48.8074082 31.4242266,48.8781496 31.8352799,48.8781496 C32.8118468,48.8781496 33.7293124,48.5007305 34.4172788,47.8161066 C34.7834417,47.4530466 35.0612845,47.0259635 35.2421745,46.5608093 L35.3533381,46.671071 C36.0650779,47.3770358 36.9999419,47.7300841 37.9348059,47.7300841 C38.8696699,47.7300841 39.8045339,47.3770358 40.5162736,46.671071 C40.8945223,46.2958913 41.1787401,45.8528685 41.3588332,45.3697983 C41.9959326,45.8294197 42.7501722,46.0595598 43.5048103,46.0595598 C44.4396743,46.0595598 45.3750695,45.7066432 46.0874733,45.0009419 C46.7769007,44.3171085 47.1566103,43.4073505 47.1566103,42.4393659 C47.1566103,42.1469155 47.1212823,41.8601297 47.0539466,41.5828287 C47.7494833,41.4426632 48.3885748,41.103974 48.9013622,40.5946887 C49.5907895,39.9108553 49.9704991,39.0014926 49.9704991,38.0341666 C49.9704991,37.272083 49.7338281,36.5466215 49.2967436,35.9382719 L50.1679906,35.074094 C52.6514431,32.6096063 54.2920703,29.495141 54.912701,26.0672794 C55.0166928,25.4933125 55.3033012,24.9601833 55.7418466,24.5250645 L58.9821949,21.3110079 L59.5518258,21.8760168 C59.7639266,22.0863967 60.0419022,22.1915208 60.3198778,22.1915208 C60.5977206,22.1915208 60.875829,22.0863967 61.0879299,21.8760168 L67.682048,15.3354024 C67.8856488,15.1334536 68,14.859446 68,14.573714 C68,14.287982 67.8852504,14.0142379 67.6816495,13.8121572 Z M7.68008898,20.6557608 L2.6218094,15.6385234 L15.7660848,2.60089869 L20.8244972,7.61813614 L7.68008898,20.6557608 Z M20.8296769,39.3177869 C20.1527339,39.9891056 19.0510579,39.989369 18.3735837,39.3177869 C18.0455379,38.9922711 17.8649135,38.559787 17.8649135,38.0996387 C17.8649135,37.639622 18.0456707,37.2070062 18.3737165,36.8816221 C18.7122544,36.5458311 19.1567763,36.3778697 19.6015639,36.3778697 C20.0462186,36.3778697 20.4911389,36.5458311 20.829544,36.8816221 C21.5066199,37.5532042 21.5066199,38.6460731 20.8296769,39.3177869 Z M24.9266628,43.3815306 C24.5988827,43.7070463 24.1628608,43.8860734 23.6986827,43.8860734 C23.234903,43.8860734 22.7987482,43.7067829 22.4708353,43.3815306 C21.7936267,42.7099485 21.7936267,41.6170796 22.4708353,40.9453658 C22.8093732,40.6095747 23.2538951,40.4416133 23.6988155,40.4416133 C24.1433374,40.4416133 24.5882578,40.6095747 24.9266628,40.9453658 C25.6040043,41.6169479 25.6040043,42.7099485 24.9266628,43.3815306 Z M28.9187273,47.3410723 C28.5906816,47.6664563 28.1546596,47.8456152 27.69088,47.8456152 C27.2269675,47.8456152 26.7908127,47.6663246 26.4628998,47.3410723 C25.7856912,46.6694902 25.7856912,45.5766214 26.4628998,44.9049075 C26.8014377,44.5691164 27.2459596,44.401155 27.69088,44.401155 C28.1354019,44.401155 28.5803222,44.5691164 28.9187273,44.9049075 C29.595936,45.5766214 29.595936,46.6694902 28.9187273,47.3410723 Z M47.3647268,39.0718387 C47.0855559,39.349008 46.7143462,39.5016882 46.3196288,39.5016882 C45.9249114,39.5016882 45.5537017,39.349008 45.2739996,39.0711801 L34.7380199,28.6230591 C34.3135526,28.202431 33.6261175,28.2025628 33.2020486,28.6233225 C32.7781126,29.0439506 32.7782454,29.7260714 33.2023142,30.1466995 L44.5512364,41.4023525 C44.8305401,41.6792583 44.9842037,42.0475877 44.9842037,42.4393659 C44.9842037,42.8319345 44.8304073,43.2006592 44.5516348,43.4771698 C43.9743009,44.0492924 43.0354525,44.0494241 42.4590482,43.477565 L40.5444298,41.5784814 C40.5338048,41.5675475 40.5234455,41.5564818 40.5124221,41.5456796 C40.5092346,41.5425179 40.5056487,41.5397515 40.5023284,41.5365899 L31.7012725,32.8069445 C31.276938,32.3863165 30.5895029,32.3863165 30.1653012,32.8069445 C29.7410995,33.2275725 29.7410995,33.9096934 30.1653012,34.3303214 L38.994646,43.0878945 C39.2645201,43.3622973 39.4131368,43.7253574 39.4131368,44.1105489 C39.4131368,44.5023271 39.2592076,44.8706566 38.9800367,45.1475623 C38.403898,45.7194215 37.4658466,45.7194215 36.8891766,45.1475623 L27.3154203,35.6513543 C26.8910858,35.2305945 26.2036507,35.2305945 25.779449,35.6513543 C25.3552473,36.0719823 25.3552473,36.7541032 25.779449,37.1747312 L32.8761279,44.2139604 C32.87812,44.2159364 32.8797138,44.2181759 32.8818388,44.2200202 C33.1608769,44.4962673 33.3144076,44.8639381 33.3144076,45.2553211 C33.3144076,45.6469675 33.1606113,46.015297 32.880245,46.2933884 C32.6014726,46.5705576 32.2303957,46.7232378 31.8350142,46.7232378 C31.7395224,46.7232378 31.6461555,46.7134895 31.5547808,46.696364 C31.7304912,45.522215 31.3640627,44.2829893 30.4548315,43.3810036 C29.7165293,42.6488237 28.7349155,42.2454529 27.69088,42.2454529 C27.6617941,42.2454529 27.6328411,42.2469019 27.6037553,42.2475606 C27.6260677,41.2267505 27.2464909,40.1988268 26.462767,39.4214619 C25.724332,38.689282 24.742851,38.2859111 23.6986827,38.2859111 C23.6333391,38.2859111 23.5683941,38.2874919 23.5035818,38.2906536 C23.5557769,37.2349339 23.1764657,36.1620887 22.3653825,35.3574548 C21.3780578,34.3782728 19.9901719,34.0343142 18.7204887,34.3237347 L17.9416789,33.551244 C15.7980925,31.4241282 14.3719567,28.7383267 13.8169352,25.7841821 C13.6136,24.7022473 13.0862033,23.7137121 12.2918545,22.9256768 L10.3773688,21.026725 L21.2692847,10.2231845 L23.9836973,12.9155727 C25.0270688,13.9504784 26.4476264,14.5042899 27.9025824,14.5042899 C28.5541583,14.5042899 29.2130388,14.3931061 29.8477476,14.1642834 C30.1556059,14.0532312 30.4739564,13.9735319 30.7965568,13.9229459 L24.0720173,20.5930552 C23.2492467,21.4090183 22.796092,22.493983 22.796092,23.6481084 C22.796092,24.802102 23.2492467,25.8870667 24.0718845,26.7030298 C24.9210847,27.5453397 26.0361747,27.9663629 27.1517959,27.9662312 C28.2671514,27.9662312 29.3826398,27.5449445 30.2319728,26.7030298 L33.6093832,23.3530232 L34.5235285,24.26041 C34.5237941,24.2606735 34.5239269,24.2608052 34.5241925,24.2610687 L34.5621768,24.2987447 L34.5987001,24.3349717 C34.5988329,24.3351034 34.5990985,24.3353669 34.5993642,24.3354986 L34.6000282,24.3361573 C34.6105204,24.3464326 34.6207469,24.3561809 34.6309734,24.3659293 L47.3651252,36.996758 C47.6444289,37.2736638 47.7980925,37.6419932 47.7980925,38.0337714 C47.7980925,38.4262083 47.6444289,38.7945378 47.3647268,39.0718387 Z M54.2054768,23.0018193 C53.4519013,23.7494121 52.9570436,24.6778764 52.7745599,25.6866986 C52.2326867,28.6797049 50.8000432,31.3992304 48.6317537,33.5509806 L47.7971628,34.3789314 L40.9266628,27.5641777 C41.0759436,27.5751117 41.2258884,27.5823571 41.3768957,27.5823571 C42.0725652,27.5823571 42.7844377,27.4614249 43.4931228,27.1738486 C44.0482772,26.9485827 44.3141669,26.3195508 44.0870583,25.7690327 C43.8599497,25.2185145 43.2263034,24.9546504 42.6707506,25.1799163 C39.8755883,26.3142815 36.5244748,23.1880917 36.1514057,22.8277981 C36.1451636,22.8217383 36.1389214,22.8158102 36.1325464,22.8100139 L36.0940309,22.7718109 C36.0938981,22.7716792 36.0937653,22.7716792 36.0936325,22.7715475 L36.060031,22.7383504 C36.0598982,22.7382187 36.0596326,22.7379552 36.059367,22.7378235 L35.1450889,21.830305 L36.1818197,20.8018543 C36.6061542,20.3810945 36.6061542,19.6991054 36.1819525,19.2783456 C35.7577508,18.8578493 35.0701829,18.8577176 34.646114,19.2783456 L32.8438545,21.0659818 C32.8431905,21.0666405 32.8423936,21.0672992 32.8417295,21.0679578 C32.8410655,21.0686165 32.8404014,21.0694069 32.8397374,21.0700656 L28.6960015,25.1801798 C27.8444107,26.0247292 26.459181,26.0244657 25.6078558,25.1801798 C25.1954744,24.7711444 24.9683658,24.2272129 24.9683658,23.6486353 C24.9683658,23.0700577 25.1954744,22.5261262 25.6079886,22.1170908 L32.7601829,15.0226649 C33.1580878,14.6281203 33.600352,14.2810001 34.0756863,13.9902622 C35.2049871,13.297866 36.5093342,12.9319078 37.8476812,12.9319078 C38.8694043,12.9319078 39.8981664,13.1519043 40.8230695,13.5683168 C42.9270779,14.5152239 45.4277959,14.0740453 47.0454466,12.4699151 L48.5572461,10.9706456 L57.4462236,19.7874992 L54.2054768,23.0018193 Z M60.3194794,19.5912149 L48.6670817,8.03336306 L53.7254941,3.01612561 L65.3778918,14.5739774 L60.3194794,19.5912149 Z" id="Shape"></path>
                    <circle id="Oval" cx="61" cy="16" r="1"></circle>
                    <circle id="Oval" cx="7" cy="17" r="1"></circle>
                </g>
            </g>
        </g>
    </g>
</svg>