<?xml version="1.0" encoding="UTF-8" standalone="no"?>
<svg width="38px" height="50px" viewBox="0 0 38 50" version="1.1" xmlns="http://www.w3.org/2000/svg" xmlns:xlink="http://www.w3.org/1999/xlink">
    <!-- Generator: Sketch 48.2 (47327) - http://www.bohemiancoding.com/sketch -->
    <title>lock</title>
    <desc>Created with Sketch.</desc>
    <defs></defs>
    <g id="07_about" stroke="none" stroke-width="1" fill="none" fill-rule="evenodd" transform="translate(-514.000000, -1824.000000)">
        <g id="features" transform="translate(103.000000, 1522.000000)" fill="#008BD2" fill-rule="nonzero">
            <g id="6-card" transform="translate(300.000000, 272.000000)">
                <g id="lock" transform="translate(111.000000, 30.000000)">
                    <path d="M14.2857143,28.5714286 C13.7222337,28.5714286 13.2653061,29.0469525 13.2653061,29.6335987 L13.2653061,30.5704829 C13.2653061,31.1571291 13.7222337,31.6326531 14.2857143,31.6326531 C14.8491949,31.6326531 15.3061224,31.1571291 15.3061224,30.5704829 L15.3061224,29.6335987 C15.3061224,29.0469525 14.8491949,28.5714286 14.2857143,28.5714286 Z" id="Shape"></path>
                    <path d="M14.2857143,32.6530612 C13.7222337,32.6530612 13.2653061,33.1111013 13.2653061,33.6761779 L13.2653061,38.7728017 C13.2653061,39.3378783 13.7222337,39.7959184 14.2857143,39.7959184 C14.8491949,39.7959184 15.3061224,39.3378783 15.3061224,38.7728017 L15.3061224,33.6761779 C15.3061224,33.1111013 14.8491949,32.6530612 14.2857143,32.6530612 Z" id="Shape"></path>
                    <path d="M29.3808063,30.3963867 L29.3808063,22.5938477 C29.3808063,22.04375 28.9303357,21.5978516 28.3748177,21.5978516 L26.6987946,21.5978516 L26.6987946,11.8891602 C26.6987946,8.70517578 25.4396074,5.71220703 23.1533233,3.46152344 C20.8840047,1.22773437 17.881426,0 14.6911429,0 C14.6675689,0 14.6438963,9.765625e-05 14.6203223,0.0001953125 C8.03735511,0.0375976562 2.68191306,5.42470703 2.68191306,12.0089844 L2.68191306,21.5977539 L1.00598865,21.5977539 C0.450470648,21.5977539 0,22.0436523 0,22.59375 L0,45.0657227 C0,45.6158203 0.450470648,46.0617188 1.00598865,46.0617188 L19.8314599,46.0617188 C21.6513928,48.4518555 24.5421183,50 27.7912871,50 C33.2853127,50 37.755102,45.5746094 37.755102,40.1351563 C37.755102,35.23125 34.122042,31.1521484 29.3808063,30.3963867 Z M14.6318627,1.9921875 C14.6515899,1.99199219 14.6710212,1.99199219 14.6907484,1.99199219 C17.3457338,1.99199219 19.8453675,3.01435547 21.7347403,4.87412109 C23.6385139,6.74804687 24.686916,9.23935547 24.686916,11.8891602 L24.686916,21.5980469 L22.6888464,21.5978516 L22.6888464,11.9775391 C22.6888464,7.60439453 19.1361746,4.01259766 14.769164,3.97080078 C12.6190963,3.95058594 10.5944936,4.76484375 9.06474777,6.26484375 C7.53470601,7.76513672 6.6920586,9.76259766 6.6920586,11.8893555 L6.6920586,21.5980469 L4.69389035,21.5980469 L4.69398898,12.0089844 L4.69389035,12.0089844 C4.69389035,6.51679687 9.15204064,2.02333984 14.6318627,1.9921875 Z M20.6766718,11.9773438 L20.6766718,21.5976563 L8.70393725,21.5976563 L8.70393725,11.8890625 C8.70393725,10.2980469 9.33481316,8.80322266 10.4803718,7.67998047 C11.6115295,6.57080078 13.1043855,5.96210937 14.6900579,5.96210937 C14.7097851,5.96210937 14.7298082,5.96220703 14.7496341,5.96240234 C18.0178396,5.99384766 20.6766718,8.69208984 20.6766718,11.9773438 Z M18.6553241,44.0698242 L2.01197729,44.0698242 L2.01197729,23.5898437 L3.6879017,23.5898437 L7.69794861,23.5898437 L21.6826605,23.5898437 L25.6927074,23.5898437 L27.3687304,23.5898437 L27.3687304,30.2797852 C22.0700041,30.4998047 17.8274721,34.8358398 17.8274721,40.1351562 C17.8274721,41.5331055 18.1233801,42.8637695 18.6553241,44.0698242 Z M27.7912871,48.0080078 C23.4067192,48.0080078 19.8394494,44.4763672 19.8394494,40.1351562 C19.8394494,35.794043 23.4066206,32.2623047 27.7912871,32.2623047 C32.1759535,32.2623047 35.7431248,35.7939453 35.7431248,40.1351562 C35.7431248,44.4762695 32.1758549,48.0080078 27.7912871,48.0080078 Z" id="Shape"></path>
                    <path d="M32.3486798,37.0432716 C31.9427191,36.6318346 31.284867,36.6318346 30.8789063,37.0432716 L25.637896,42.3549811 L24.2232492,40.921148 C23.8172884,40.5098142 23.1594364,40.5098142 22.7533737,40.921148 C22.3475149,41.3324817 22.3475149,41.9994144 22.7533737,42.4108514 L24.9030092,44.5894847 C25.1059896,44.7952032 25.3719428,44.8979592 25.637896,44.8979592 C25.9038492,44.8979592 26.1698024,44.7952032 26.3727828,44.5894847 L32.3485779,38.5330784 C32.7545387,38.1216414 32.7545387,37.4547086 32.3486798,37.0432716 Z" id="Shape"></path>
                </g>
            </g>
        </g>
    </g>
</svg>