<?xml version="1.0" encoding="UTF-8" standalone="no"?>
<svg width="49px" height="50px" viewBox="0 0 49 50" version="1.1" xmlns="http://www.w3.org/2000/svg" xmlns:xlink="http://www.w3.org/1999/xlink">
    <!-- Generator: Sketch 48.2 (47327) - http://www.bohemiancoding.com/sketch -->
    <title>money-bag</title>
    <desc>Created with Sketch.</desc>
    <defs></defs>
    <g id="07_about" stroke="none" stroke-width="1" fill="none" fill-rule="evenodd" transform="translate(-209.000000, -1824.000000)">
        <g id="features" transform="translate(103.000000, 1522.000000)" fill="#008BD2" fill-rule="nonzero">
            <g id="5-card" transform="translate(0.000000, 272.000000)">
                <g id="money-bag" transform="translate(106.000000, 30.000000)">
                    <circle id="Oval" cx="8" cy="40" r="1"></circle>
                    <circle id="Oval" cx="46" cy="28" r="1"></circle>
                    <path d="M34.2365745,20.5014014 L33.6803778,20.5014014 L33.3195263,20.5014014 L32.7633296,20.5014014 C32.2976096,20.5014014 31.9188163,20.107135 31.9188163,19.622391 L31.9188163,18.7304981 C31.9189123,18.2457541 32.2977055,17.8514877 32.7633296,17.8514877 L34.3955563,17.8514877 C34.7734861,17.8514877 35.0810877,18.1714546 35.0810877,18.5649221 C35.0810877,19.1163758 35.5107322,19.5635706 36.0405439,19.5635706 C36.5703555,19.5635706 37,19.1163758 37,18.5649221 C37,17.0926147 35.8661148,15.8914403 34.4594561,15.8558884 L34.4594561,14.9986485 C34.4594561,14.4471948 34.0298117,14 33.5,14 C32.9701883,14 32.5405439,14.4471948 32.5405439,14.9986485 L32.5405439,15.8643769 C31.1207407,15.9830163 30,17.2227386 30,18.7304981 L30,19.622391 C30,21.2083447 31.2397133,22.4986984 32.7634255,22.4986984 L33.3196222,22.4986984 L33.6804737,22.4986984 L34.2366704,22.4986984 C34.7023904,22.4986984 35.0811837,22.8929649 35.0811837,23.377609 L35.0811837,24.2696018 C35.0811837,24.7542459 34.7023904,25.1485123 34.2366704,25.1485123 L32.6044437,25.1485123 C32.2265139,25.1485123 31.9189123,24.8285454 31.9189123,24.4350779 C31.9189123,23.8836242 31.4892678,23.4364294 30.9594561,23.4364294 C30.4296445,23.4364294 30,23.8836242 30,24.4350779 C30,25.9074852 31.1339812,27.1085597 32.5405439,27.1441116 L32.5405439,28.0013515 C32.5405439,28.5528052 32.9701883,29 33.5,29 C34.0298117,29 34.4594561,28.5528052 34.4594561,28.0013515 L34.4594561,27.1356231 C35.8792593,27.0169837 37,25.7773613 37,24.2696018 L37,23.377609 C37,21.7916553 35.7602867,20.5014014 34.2365745,20.5014014 Z" id="Shape"></path>
                    <path d="M48.6759431,33.1063376 C48.2680535,32.1962785 47.5248322,31.4970593 46.5832665,31.1376841 C45.6417008,30.7783089 44.6142949,30.8015511 43.6905713,31.2036021 C43.6856151,31.2056529 43.680659,31.207899 43.6759011,31.2100474 L37.4322669,34.0467678 C36.9350679,34.2726469 36.7179893,34.852823 36.9471608,35.3425694 C37.1764314,35.8324134 37.765418,36.0461831 38.2624188,35.8204994 L44.4980241,32.9873922 C44.9356504,32.7992085 45.4215494,32.7891499 45.8672047,32.9589742 C46.3150407,33.1299704 46.6684128,33.4623925 46.8623957,33.8953029 C47.0564778,34.3282133 47.0676787,34.8094636 46.8942141,35.2506748 C46.7206504,35.6919837 46.383237,36.0401284 45.9438265,36.2312418 L33.1669217,41.7892529 C31.1521555,42.6657183 28.8652977,42.6147417 26.8923612,41.6491161 L22.2152608,39.3599546 C19.7136043,38.1354421 16.8132766,38.0705007 14.2579948,39.1823178 L14.1985213,39.208099 L10.7319061,31.4727429 L15.5520405,29.3760619 C17.8555509,28.3740106 20.4258003,28.2933464 22.7891807,29.1483274 L32.1944298,32.5511615 C33.0344939,32.8550679 33.4822308,33.781045 33.1924954,34.6151276 C32.8973082,35.4651281 31.9543548,35.9224525 31.0906004,35.6346594 L23.8174787,33.2110252 C23.2987701,33.0381735 22.7363484,33.3122947 22.5609013,33.8232325 C22.3854543,34.3341704 22.6636915,34.8883699 23.182301,35.0612216 L30.4554227,37.4848558 C30.8400184,37.6130786 31.2316519,37.6739184 31.6172388,37.6739184 C33.1321297,37.6739184 34.5518629,36.7344648 35.0682917,35.2473545 C35.703965,33.4166893 34.7212634,31.3847545 32.8777811,30.7178596 L23.472532,27.3150255 C22.8399315,27.0861192 22.1950398,26.9131698 21.5442007,26.7953963 L21.5442007,21.3972486 C21.5442007,16.0745892 25.9395947,11.7442155 31.3421736,11.7442155 L34.9625279,11.7442155 C40.3652059,11.7442155 44.7605999,16.0745892 44.7605999,21.3972486 L44.7605999,23.9422696 C44.7605999,24.4815278 45.2044709,24.9188327 45.751826,24.9188327 C46.299181,24.9188327 46.7430521,24.4815278 46.7430521,23.9422696 L46.7430521,21.3972486 C46.7430521,15.7604288 42.6428452,11.0499768 37.2264883,10.0070074 L37.2264883,7.06530645 L39.7310194,2.8444055 C39.8726656,2.60583113 39.9049796,2.31920987 39.8199324,2.05583081 C39.7348852,1.79245174 39.540704,1.57682661 39.285265,1.46247108 L36.2134552,0.0874702586 C35.9782373,-0.0178032417 35.7107053,-0.0284477793 35.4677558,0.0576850846 L33.1884313,0.865888691 L31.1667265,0.0696968105 C30.934284,-0.021709494 30.6754749,-0.0231743386 30.441942,0.0653999329 L27.2275939,1.287178 C26.9601611,1.38883822 26.7505168,1.59967819 26.6525836,1.86520569 C26.5548488,2.13073319 26.5784399,2.424874 26.717509,2.67194445 L29.1837787,7.05349003 L29.1837787,9.98689022 C23.7152833,10.9886486 19.5617484,15.7236124 19.5617484,21.3970533 L19.5617484,26.6079939 C17.9242429,26.5927595 16.2885215,26.9203964 14.7513281,27.5890491 L9.89531128,29.7013551 C9.61717323,29.2912963 9.22048453,28.9743039 8.74400213,28.7924678 C8.13221737,28.5588739 7.46462658,28.5741083 6.8668181,28.8341671 L0.593347958,31.5424695 C0.232839017,31.6981336 0,32.0491104 0,32.4369036 L0,49.0234369 C0,49.3625973 0.178618948,49.6774412 0.471823635,49.8552734 C0.630717183,49.9514648 0.810723847,50 0.991226124,50 C1.14407319,50 1.29731675,49.9652344 1.43816998,49.8951171 L13.6176627,43.8334924 C14.2050633,43.5700157 14.6561704,43.0993123 14.8897032,42.5053666 C15.0805143,42.0201124 15.1076739,41.4993113 14.9728671,41.006147 L15.0586082,40.9688423 C17.0734735,40.0921816 19.3606287,40.1432558 21.3331687,41.1089791 L26.0102691,43.3982383 C28.5120247,44.6224577 31.4122533,44.6872039 33.9675351,43.5757774 L46.7444398,38.0177663 C47.6681634,37.6160082 48.3778814,36.8837812 48.7426526,35.956144 C49.1074238,35.0285067 49.0837335,34.0163967 48.6759431,33.1063376 Z M35.2440361,9.79089401 L34.9625279,9.79089401 L31.3421736,9.79089401 L31.1662309,9.79089401 L31.1662309,7.77741625 L35.2440361,7.77741625 L35.2440361,9.79089401 Z M29.0032764,2.70544057 L30.7923404,2.02565501 L32.8020514,2.81715939 C33.027258,2.90583131 33.2776417,2.91022585 33.5057228,2.82917111 L35.7601675,2.02965892 L37.4651756,2.79284296 L35.6664967,5.82409477 L30.7587379,5.82409477 L29.0032764,2.70544057 Z M12.7904845,42.0583937 C12.7748232,42.0652296 12.7592609,42.0725539 12.7438969,42.0801711 L1.98235313,47.4360336 L1.98245225,43.4786094 L4.76908625,42.1304641 C5.26053617,41.892671 5.46324191,41.3075144 5.22197747,40.823432 C4.98061391,40.3392521 4.38686946,40.1393496 3.89532042,40.3772404 L1.98235313,41.3026315 L1.98235313,33.0751852 L7.66495338,30.6218635 C7.82107149,30.55409 7.95934753,30.5874884 8.02784126,30.6136603 C8.09613674,30.6398322 8.22122948,30.7065315 8.29021881,30.8605355 L8.51740784,31.3673717 C8.51750697,31.367567 8.51750697,31.3677623 8.51760609,31.3679576 C8.51770521,31.368153 8.51780433,31.3683483 8.51790346,31.3685436 L13.032542,41.4421824 C13.1383058,41.6779247 13.0297665,41.9542921 12.7904845,42.0583937 Z" id="Shape"></path>
                </g>
            </g>
        </g>
    </g>
</svg>