<?xml version="1.0" encoding="UTF-8" standalone="no"?>
<svg width="44px" height="50px" viewBox="0 0 44 50" version="1.1" xmlns="http://www.w3.org/2000/svg" xmlns:xlink="http://www.w3.org/1999/xlink">
    <!-- Generator: Sketch 48.2 (47327) - http://www.bohemiancoding.com/sketch -->
    <title>wallet</title>
    <desc>Created with Sketch.</desc>
    <defs></defs>
    <g id="07_about" stroke="none" stroke-width="1" fill="none" fill-rule="evenodd" transform="translate(-211.000000, -1624.000000)">
        <g id="features" transform="translate(103.000000, 1522.000000)" fill="#008BD2" fill-rule="nonzero">
            <g id="1-card" transform="translate(0.000000, 72.000000)">
                <g id="wallet" transform="translate(108.000000, 30.000000)">
                    <path d="M42.2341838,8.61151921 L26.7930732,0.345889669 C25.3283039,-0.438440141 23.314246,0.164890482 22.5208292,1.61288398 L13.4880847,18.2044761 L2.50231436,18.2044761 C1.09857704,18.2044761 0,19.2904713 0,20.6781317 L0,25.0221122 L0,47.5263444 C0,48.9140049 1.09857704,50 2.50231436,50 L37.5957474,50 C38.9994847,50 40.0980618,48.9140049 40.0980618,47.5263444 L40.0980618,41.251706 L41.1356068,41.251706 C41.6848953,41.251706 42.1121197,40.8293745 42.1121197,40.286377 L42.1121197,33.1067425 C42.1121197,32.563745 41.6848953,32.1414135 41.1356068,32.1414135 L40.0980618,32.1414135 L40.0980618,25.0824452 C40.0980618,23.9361171 39.243613,22.910455 38.1450359,22.6691227 L43.515857,12.8348336 C44.3092738,11.326507 43.7599852,9.45618209 42.2341838,8.61151921 Z M31.2484134,4.93120241 L21.6053484,22.6087897 L18.8589058,22.6087897 L29.1733235,3.84520729 L31.2484134,4.93120241 Z M24.2907589,2.51787991 C24.5959192,1.97488235 25.3283039,1.7335501 25.8775924,2.03521542 L27.4033938,2.87987829 L16.6617517,22.6087897 L13.3049885,22.6087897 L24.2907589,2.51787991 Z M1.89199378,20.6177986 C1.89199378,20.4367994 2.13612201,20.1351341 2.4412823,20.1351341 L12.3895077,20.1351341 L11.0468024,22.5484566 L2.4412823,22.5484566 C2.25818613,22.5484566 2.07508996,22.5484566 1.89199378,22.6087897 L1.89199378,20.6177986 Z M38.0840039,47.5263444 C38.0840039,47.8280098 37.8398757,48.069342 37.5347154,48.069342 L2.4412823,48.069342 C2.13612201,48.069342 1.89199378,47.8280098 1.89199378,47.5263444 L1.89199378,25.0824452 C1.89199378,24.7807799 2.13612201,24.5394477 2.4412823,24.5394477 L11.657123,24.5394477 L15.5631747,24.5394477 L22.7039254,24.5394477 L36.4361383,24.5394477 L37.4736833,24.5394477 C37.7788436,24.5394477 38.0229718,24.7807799 38.0229718,25.0824452 L38.0229718,32.1414135 L34.3000163,32.1414135 C32.6521508,32.1414135 31.3704776,33.4687409 31.3704776,35.0374005 L31.3704776,38.355719 C31.3704776,39.9847116 32.7131828,41.251706 34.3000163,41.251706 L38.0840039,41.251706 L38.0840039,47.5263444 Z M40.0370297,34.0720715 L40.0980618,34.0720715 L40.0980618,39.321048 L40.0370297,39.321048 L34.3000163,39.321048 C33.7507278,39.321048 33.3235034,38.8987165 33.3235034,38.355719 L33.3235034,35.0374005 C33.3235034,34.494403 33.7507278,34.0720715 34.3000163,34.0720715 L40.0370297,34.0720715 Z M41.7459273,11.8695046 L35.8868498,22.6087897 L23.8025024,22.6087897 L32.9573111,5.89653141 L41.2576709,10.361178 C41.8679915,10.6025103 42.0510876,11.326507 41.7459273,11.8695046 Z" id="Shape"></path>
                    <path d="M37.4552161,10.7122765 L36.9816769,10.485438 C35.7978288,9.86163197 34.1996339,10.3153091 33.5485174,11.4495018 L32.9565934,12.5269849 C32.6606314,13.0940813 32.5422466,13.7745969 32.7790162,14.3984029 C32.9565934,15.022209 33.4301326,15.5325957 34.0220567,15.8161439 L34.4955959,16.0429824 C34.8507503,16.2131113 35.2650972,16.3265306 35.679444,16.3265306 C36.6265225,16.3265306 37.4552161,15.8161439 37.9287554,15.0789186 L38.5206794,14.0014355 C39.1126035,12.8105331 38.6390642,11.3360825 37.4552161,10.7122765 Z M36.8040997,13.1507909 L36.2121756,14.228274 C36.0345984,14.5118222 35.6202516,14.6252415 35.3242896,14.4551126 L34.8507503,14.1715644 C34.7323655,14.1148548 34.6139807,13.9447259 34.5547883,13.8313066 C34.4955959,13.6611777 34.4955959,13.4910488 34.6139807,13.3776295 L35.2059048,12.3001464 C35.3242896,12.1300175 35.5610592,11.9598885 35.7978288,11.9598885 C35.9162136,11.9598885 35.975406,11.9598885 36.0937908,12.0165982 L36.5673301,12.2434367 C36.8040997,12.4702753 36.9224845,12.8105331 36.8040997,13.1507909 Z" id="Shape"></path>
                </g>
            </g>
        </g>
    </g>
</svg>